<svg height="2078" width="720" xmlns="http://www.w3.org/2000/svg">
<rect height="2078" fill="#555" width="720"></rect>
<text fill="#7f7" font-family="Courier New" font-size="12" xml:space="preserve">
<tspan x="10" y="26">21 megabytes installed</tspan>
<tspan x="10" y="42"></tspan>
<tspan x="10" y="58">node_modules</tspan>
<tspan x="10" y="74">└─┬ textract@2.1.2 </tspan>
<tspan x="10" y="90">  ├─┬ cheerio@0.22.0 </tspan>
<tspan x="10" y="106">  │ ├─┬ css-select@1.2.0 </tspan>
<tspan x="10" y="122">  │ │ ├── boolbase@1.0.0 </tspan>
<tspan x="10" y="138">  │ │ ├── css-what@2.1.0 </tspan>
<tspan x="10" y="154">  │ │ ├── domutils@1.5.1 </tspan>
<tspan x="10" y="170">  │ │ └── nth-check@1.0.1 </tspan>
<tspan x="10" y="186">  │ ├─┬ dom-serializer@0.1.0 </tspan>
<tspan x="10" y="202">  │ │ └── domelementtype@1.1.3 </tspan>
<tspan x="10" y="218">  │ ├── entities@1.1.1 </tspan>
<tspan x="10" y="234">  │ ├─┬ htmlparser2@3.9.2 </tspan>
<tspan x="10" y="250">  │ │ ├── domelementtype@1.3.0 </tspan>
<tspan x="10" y="266">  │ │ ├── domhandler@2.3.0 </tspan>
<tspan x="10" y="282">  │ │ └── inherits@2.0.3 </tspan>
<tspan x="10" y="298">  │ ├── lodash.assignin@4.2.0 </tspan>
<tspan x="10" y="314">  │ ├── lodash.bind@4.2.1 </tspan>
<tspan x="10" y="330">  │ ├── lodash.defaults@4.2.0 </tspan>
<tspan x="10" y="346">  │ ├── lodash.filter@4.6.0 </tspan>
<tspan x="10" y="362">  │ ├── lodash.flatten@4.4.0 </tspan>
<tspan x="10" y="378">  │ ├── lodash.foreach@4.5.0 </tspan>
<tspan x="10" y="394">  │ ├── lodash.map@4.6.0 </tspan>
<tspan x="10" y="410">  │ ├── lodash.merge@4.6.0 </tspan>
<tspan x="10" y="426">  │ ├── lodash.pick@4.4.0 </tspan>
<tspan x="10" y="442">  │ ├── lodash.reduce@4.6.0 </tspan>
<tspan x="10" y="458">  │ ├── lodash.reject@4.6.0 </tspan>
<tspan x="10" y="474">  │ └── lodash.some@4.6.0 </tspan>
<tspan x="10" y="490">  ├─┬ got@5.7.1 </tspan>
<tspan x="10" y="506">  │ ├─┬ create-error-class@3.0.2 </tspan>
<tspan x="10" y="522">  │ │ └── capture-stack-trace@1.0.0 </tspan>
<tspan x="10" y="538">  │ ├── duplexer2@0.1.4 </tspan>
<tspan x="10" y="554">  │ ├── is-redirect@1.0.0 </tspan>
<tspan x="10" y="570">  │ ├── is-retry-allowed@1.1.0 </tspan>
<tspan x="10" y="586">  │ ├── is-stream@1.1.0 </tspan>
<tspan x="10" y="602">  │ ├── lowercase-keys@1.0.0 </tspan>
<tspan x="10" y="618">  │ ├── node-status-codes@1.0.0 </tspan>
<tspan x="10" y="634">  │ ├── object-assign@4.1.1 </tspan>
<tspan x="10" y="650">  │ ├─┬ parse-json@2.2.0 </tspan>
<tspan x="10" y="666">  │ │ └─┬ error-ex@1.3.1 </tspan>
<tspan x="10" y="682">  │ │   └── is-arrayish@0.2.1 </tspan>
<tspan x="10" y="698">  │ ├─┬ pinkie-promise@2.0.1 </tspan>
<tspan x="10" y="714">  │ │ └── pinkie@2.0.4 </tspan>
<tspan x="10" y="730">  │ ├── read-all-stream@3.1.0 </tspan>
<tspan x="10" y="746">  │ ├─┬ readable-stream@2.2.9 </tspan>
<tspan x="10" y="762">  │ │ ├── buffer-shims@1.0.0 </tspan>
<tspan x="10" y="778">  │ │ ├── core-util-is@1.0.2 </tspan>
<tspan x="10" y="794">  │ │ ├── isarray@1.0.0 </tspan>
<tspan x="10" y="810">  │ │ ├── process-nextick-args@1.0.7 </tspan>
<tspan x="10" y="826">  │ │ ├── string_decoder@1.0.0 </tspan>
<tspan x="10" y="842">  │ │ └── util-deprecate@1.0.2 </tspan>
<tspan x="10" y="858">  │ ├── timed-out@3.1.3 </tspan>
<tspan x="10" y="874">  │ ├── unzip-response@1.0.2 </tspan>
<tspan x="10" y="890">  │ └─┬ url-parse-lax@1.0.0 </tspan>
<tspan x="10" y="906">  │   └── prepend-http@1.0.4 </tspan>
<tspan x="10" y="922">  ├── html-entities@1.2.0 </tspan>
<tspan x="10" y="938">  ├── iconv-lite@0.4.15 </tspan>
<tspan x="10" y="954">  ├─┬ j@0.4.3 </tspan>
<tspan x="10" y="970">  │ ├─┬ commander@2.9.0 </tspan>
<tspan x="10" y="986">  │ │ └── graceful-readlink@1.0.1 </tspan>
<tspan x="10" y="1002">  │ ├─┬ concat-stream@1.6.0 </tspan>
<tspan x="10" y="1018">  │ │ └── typedarray@0.0.6 </tspan>
<tspan x="10" y="1034">  │ ├─┬ harb@0.0.7 </tspan>
<tspan x="10" y="1050">  │ │ ├── babyparse@0.2.1 </tspan>
<tspan x="10" y="1066">  │ │ ├─┬ codepage@1.8.1 </tspan>
<tspan x="10" y="1082">  │ │ │ └── voc@0.5.0 </tspan>
<tspan x="10" y="1098">  │ │ └─┬ ssf@0.8.2 </tspan>
<tspan x="10" y="1114">  │ │   ├── colors@0.6.2 </tspan>
<tspan x="10" y="1130">  │ │   └── frac@0.3.1 </tspan>
<tspan x="10" y="1146">  │ ├─┬ xlsjs@0.7.6 </tspan>
<tspan x="10" y="1162">  │ │ ├── cfb@0.11.1 </tspan>
<tspan x="10" y="1178">  │ │ └── exit-on-epipe@1.0.0 </tspan>
<tspan x="10" y="1194">  │ └─┬ xlsx@0.7.12 </tspan>
<tspan x="10" y="1210">  │   ├─┬ adler-32@1.0.0 </tspan>
<tspan x="10" y="1226">  │   │ └── printj@1.0.0 </tspan>
<tspan x="10" y="1242">  │   ├── codepage@1.3.8 </tspan>
<tspan x="10" y="1258">  │   ├── crc-32@1.0.1 </tspan>
<tspan x="10" y="1274">  │   └─┬ jszip@2.4.0 </tspan>
<tspan x="10" y="1290">  │     └── pako@0.2.9 </tspan>
<tspan x="10" y="1306">  ├── jschardet@1.4.1 </tspan>
<tspan x="10" y="1322">  ├── marked@0.3.6 </tspan>
<tspan x="10" y="1338">  ├─┬ meow@3.7.0 </tspan>
<tspan x="10" y="1354">  │ ├─┬ camelcase-keys@2.1.0 </tspan>
<tspan x="10" y="1370">  │ │ └── camelcase@2.1.1 </tspan>
<tspan x="10" y="1386">  │ ├── decamelize@1.2.0 </tspan>
<tspan x="10" y="1402">  │ ├─┬ loud-rejection@1.6.0 </tspan>
<tspan x="10" y="1418">  │ │ ├─┬ currently-unhandled@0.4.1 </tspan>
<tspan x="10" y="1434">  │ │ │ └── array-find-index@1.0.2 </tspan>
<tspan x="10" y="1450">  │ │ └── signal-exit@3.0.2 </tspan>
<tspan x="10" y="1466">  │ ├── map-obj@1.0.1 </tspan>
<tspan x="10" y="1482">  │ ├── minimist@1.2.0 </tspan>
<tspan x="10" y="1498">  │ ├─┬ normalize-package-data@2.3.6 </tspan>
<tspan x="10" y="1514">  │ │ ├── hosted-git-info@2.4.2 </tspan>
<tspan x="10" y="1530">  │ │ ├─┬ is-builtin-module@1.0.0 </tspan>
<tspan x="10" y="1546">  │ │ │ └── builtin-modules@1.1.1 </tspan>
<tspan x="10" y="1562">  │ │ ├── semver@5.3.0 </tspan>
<tspan x="10" y="1578">  │ │ └─┬ validate-npm-package-license@3.0.1 </tspan>
<tspan x="10" y="1594">  │ │   ├─┬ spdx-correct@1.0.2 </tspan>
<tspan x="10" y="1610">  │ │   │ └── spdx-license-ids@1.2.2 </tspan>
<tspan x="10" y="1626">  │ │   └── spdx-expression-parse@1.0.4 </tspan>
<tspan x="10" y="1642">  │ ├─┬ read-pkg-up@1.0.1 </tspan>
<tspan x="10" y="1658">  │ │ ├─┬ find-up@1.1.2 </tspan>
<tspan x="10" y="1674">  │ │ │ └── path-exists@2.1.0 </tspan>
<tspan x="10" y="1690">  │ │ └─┬ read-pkg@1.1.0 </tspan>
<tspan x="10" y="1706">  │ │   ├─┬ load-json-file@1.1.0 </tspan>
<tspan x="10" y="1722">  │ │   │ ├── graceful-fs@4.1.11 </tspan>
<tspan x="10" y="1738">  │ │   │ ├── pify@2.3.0 </tspan>
<tspan x="10" y="1754">  │ │   │ └─┬ strip-bom@2.0.0 </tspan>
<tspan x="10" y="1770">  │ │   │   └── is-utf8@0.2.1 </tspan>
<tspan x="10" y="1786">  │ │   └── path-type@1.1.0 </tspan>
<tspan x="10" y="1802">  │ ├─┬ redent@1.0.0 </tspan>
<tspan x="10" y="1818">  │ │ ├─┬ indent-string@2.1.0 </tspan>
<tspan x="10" y="1834">  │ │ │ └─┬ repeating@2.0.1 </tspan>
<tspan x="10" y="1850">  │ │ │   └─┬ is-finite@1.0.2 </tspan>
<tspan x="10" y="1866">  │ │ │     └── number-is-nan@1.0.1 </tspan>
<tspan x="10" y="1882">  │ │ └─┬ strip-indent@1.0.1 </tspan>
<tspan x="10" y="1898">  │ │   └── get-stdin@4.0.1 </tspan>
<tspan x="10" y="1914">  │ └── trim-newlines@1.0.0 </tspan>
<tspan x="10" y="1930">  ├── mime@1.3.4 </tspan>
<tspan x="10" y="1946">  ├─┬ pdf-text-extract@1.3.1 </tspan>
<tspan x="10" y="1962">  │ └── yargs@1.3.3 </tspan>
<tspan x="10" y="1978">  ├── xmldom@0.1.27 </tspan>
<tspan x="10" y="1994">  ├── xpath@0.0.23 </tspan>
<tspan x="10" y="2010">  └─┬ yauzl@2.7.0 </tspan>
<tspan x="10" y="2026">    ├── buffer-crc32@0.2.13 </tspan>
<tspan x="10" y="2042">    └─┬ fd-slicer@1.0.1 </tspan>
<tspan x="10" y="2058">      └── pend@1.2.0</tspan>
</text>
</svg>
